Coordinates
version=1
nRows=19
nColumns=36
inDegrees=yes

Units are S.I. units (second, meters, Newtons, ...)
If the header above contains a line with 'inDegrees', this indicates whether rotational values are in degrees (yes) or radians (no).

endheader
time	pelvis_tilt	pelvis_list	pelvis_rotation	pelvis_tx	pelvis_ty	pelvis_tz	hip_flexion_r	hip_adduction_r	hip_rotation_r	knee_angle_r	knee_angle_r_beta	ankle_angle_r	subtalar_angle_r	mtp_angle_r	hip_flexion_l	hip_adduction_l	hip_rotation_l	knee_angle_l	knee_angle_l_beta	ankle_angle_l	subtalar_angle_l	mtp_angle_l	lumbar_extension	lumbar_bending	lumbar_rotation	arm_flex_r	arm_add_r	arm_rot_r	elbow_flex_r	pro_sup_r	arm_flex_l	arm_add_l	arm_rot_l	elbow_flex_l	pro_sup_l
      7.83333330	     -8.81345661	      0.99830870	     -8.18093230	      0.69440178	      0.87483467	     -0.25875417	      3.82330530	     -4.61207579	      9.97354923	      1.44380507	      0.02519915	      6.99806736	    -18.38864909	     -7.49999987	      1.10462624	     -5.60706282	     -1.21868753	      1.33610794	      0.02331948	      8.81347435	    -10.40600105	     -7.49999987	      4.02694911	     -0.19286154	      0.13647003	     29.91434594	      8.08835928	     63.36250808	    124.72960139	    102.44954035	     40.30546714	     13.38410722	     64.26311003	    122.79648364	     87.57802754
      7.85000000	     -8.79929041	      1.06458354	     -8.28979470	      0.69477699	      0.87291889	     -0.25899624	      3.70483620	     -4.77792946	      9.90483764	      1.34597344	      0.02349167	      7.30551034	    -17.99958399	     -7.49999987	      1.04353570	     -5.47541704	     -1.24238648	      1.41720338	      0.02473487	      8.85915658	    -10.63178024	     -7.49999987	      4.03917486	     -0.06781555	     -0.25269833	     30.16508979	      7.87913856	     63.39793289	    124.82792694	    102.61852964	     40.24218498	     13.23121519	     64.19567952	    123.02249909	     87.84482334
      7.86666670	     -8.81838611	      1.08669825	     -8.30568126	      0.69506184	      0.87080279	     -0.25915397	      3.67319229	     -4.85562879	      9.80763693	      1.37325358	      0.02396780	      7.55557795	    -17.86660605	     -7.49999987	      1.09638813	     -5.41277613	     -1.12751107	      1.58023264	      0.02758026	      8.96149219	    -10.94662497	     -7.49999987	      4.04124396	      0.02578667	     -0.31904390	     30.42561455	      7.69965535	     63.13515880	    124.97755403	    102.60422123	     40.41131627	     13.31913735	     64.18132714	    123.23126697	     87.93222035
      7.88333330	     -8.85361504	      1.14003284	     -8.32117333	      0.69524008	      0.87117255	     -0.25900152	      3.67382527	     -4.94726190	      9.77999065	      1.41115285	      0.02462926	      7.69353716	    -17.84752948	     -7.49999987	      1.17297761	     -5.34650053	     -1.15383514	      1.75511964	      0.03063262	      9.12329689	    -10.95189548	     -7.49999987	      4.05486828	      0.05920233	     -0.39110431	     30.59060142	      7.62910444	     63.00038907	    125.11360786	    102.59359316	     40.79189373	     13.19160434	     63.98137221	    123.22161702	     88.42785463
      7.90000000	     -8.87836072	      1.21969486	     -8.39859089	      0.69534766	      0.87543345	     -0.25850477	      3.70255123	     -5.04430121	      9.78221092	      1.44629603	      0.02524263	      7.72307305	    -17.81179899	     -7.49999987	      1.24052895	     -5.25696560	     -1.17497444	      1.91572256	      0.03343567	      9.13625320	    -10.99382334	     -7.49999987	      4.03107092	      0.03644291	     -0.36856928	     30.83037254	      7.63199774	     62.99484829	    125.10682750	    102.59214434	     41.05005921	     13.04885122	     63.93012278	    123.16289342	     88.43648472
      7.91666670	     -8.91821933	      1.23584089	     -8.38585531	      0.69853071	      0.87593927	     -0.25602453	      3.68324740	     -5.02512119	      9.78345913	      1.45380836	      0.02537374	      7.72240216	    -17.81020294	     -7.49999987	      1.21466955	     -5.25697067	     -1.17394167	      1.92940029	      0.03367439	      9.13377857	    -10.99388232	     -7.49999987	      4.02527261	      0.03573229	     -0.36828714	     30.83155134	      7.63024465	     62.99586650	    125.10585305	    102.59211749	     41.05140667	     13.04307643	     63.92952192	    123.16188217	     88.43652381
      7.93333330	     -8.80455172	      1.23147880	     -8.23505680	      0.69857245	      0.87793179	     -0.25583744	      3.43665100	     -5.00780787	      9.65737645	      1.38567790	      0.02418464	      7.96331650	    -17.48958149	     -7.49999987	      1.24604883	     -5.28747693	     -1.01346666	      2.25074090	      0.03928284	      9.03901572	    -11.11510488	     -7.49999987	      3.84224135	     -0.06466400	     -1.03081134	     30.96360405	      7.87749856	     63.71345781	    124.62240081	    103.07847896	     41.15051256	     12.08672382	     63.83424086	    123.62939833	     88.43065721
      7.95000000	     -8.66379163	      1.23916197	     -8.19805057	      0.70566411	      0.88270615	     -0.25438717	      3.12070341	     -4.96759252	      9.64788037	      1.34776826	      0.02352299	      7.96867368	    -17.42671982	     -7.49999987	      1.04320544	     -5.32685603	     -1.07188412	      2.43277275	      0.04245989	      8.84157385	    -11.03127615	     -7.49999987	      3.72828360	     -0.22982278	     -1.20578602	     30.39506433	      7.82584026	     64.00845403	    124.54800525	    103.09837320	     40.73237109	     11.65015752	     64.02976075	    123.53037592	     88.44698798
      7.96666670	     -8.40419535	      1.15365970	     -8.22338913	      0.70644252	      0.87950667	     -0.25426678	      2.65269217	     -4.87751121	      9.37323466	      1.26212584	      0.02202825	      8.20070706	    -16.85111496	     -7.49999987	      0.58807159	     -5.42252255	     -1.42882966	      2.46950483	      0.04310099	      9.05320886	    -10.44788205	     -7.49999987	      3.52972207	     -0.17754857	     -1.85626257	     30.47761710	      8.17456265	     64.87211756	    124.32226321	    103.71366684	     40.33287051	     11.13585182	     63.85297372	    123.92636568	     88.07983932
      7.98333330	     -8.38342522	      1.13977267	     -8.14978440	      0.70613970	      0.87553579	     -0.25497087	      2.50554140	     -4.83191863	      9.22365463	      1.21317948	      0.02117398	      8.14074999	    -16.97922362	     -7.49999987	      0.52536958	     -5.47235190	     -1.39741005	      2.62144284	      0.04575281	      9.01222331	    -10.58216435	     -7.49999987	      3.56793797	     -0.27668969	     -2.17677226	     30.62777105	      8.32998607	     65.36166873	    124.46888438	    103.72400288	     40.54259177	     10.96231191	     63.72679977	    123.82863603	     88.15769451
      8.00000000	     -8.26613142	      1.07652807	     -8.06842827	      0.70526270	      0.88372233	     -0.25495068	      2.25014244	     -4.73291614	      9.17231313	      1.13135809	      0.01974592	      7.78462880	    -17.26954934	     -7.49999987	      0.32650986	     -5.55879682	     -1.29709929	      2.62906255	      0.04588580	      8.70640544	    -10.72781772	     -7.49999987	      3.30710284	     -0.23296997	     -2.50421222	     31.01860672	      8.46580042	     66.15678349	    124.02518118	    101.17887842	     40.57620605	     10.56858083	     63.55510080	    124.13006457	     86.59802645
      8.01666670	     -8.22896968	      1.05679549	     -8.08823901	      0.70866412	      0.88625292	     -0.25167896	      2.13744322	     -4.61312831	      9.02015609	      1.11555769	      0.01947015	      7.60620830	    -17.12083768	     -7.49999987	      0.22647426	     -5.61963757	     -1.52734114	      2.72533527	      0.04756607	      8.52311378	    -10.70220573	     -7.49999987	      3.14717404	     -0.30971812	     -2.55807678	     30.88131671	      8.46307616	     66.29651384	    123.88463834	    101.27750340	     40.61293033	     10.29727493	     63.52384841	    123.93892956	     86.66792631
      8.03333330	     -8.09389068	      0.98944734	     -8.03459746	      0.71252329	      0.88620234	     -0.24842599	      1.84542179	     -4.42225880	      8.80188730	      1.08986681	      0.01902176	      7.47629815	    -17.00387199	     -7.49999987	     -0.03652440	     -5.75708287	     -1.70059822	      2.76765096	      0.04830462	      8.29466921	    -10.62789795	     -7.49999987	      3.04113086	     -0.36217167	     -2.59864893	     30.71199705	      8.48455488	     66.36626876	    123.59913654	    101.37596503	     40.48482549	     10.31007750	     63.64423541	    123.91614772	     86.75029900
      8.05000000	     -7.68881073	      0.88869302	     -7.98623934	      0.71249804	      0.88421743	     -0.24874674	      1.27373226	     -4.26062253	      8.32835902	      1.11603507	      0.01947849	      7.47051540	    -16.50204025	     -7.49999987	     -0.62257651	     -5.87440662	     -1.99901427	      2.71201209	      0.04733354	      8.28497873	    -10.33369615	     -7.49999987	      2.54786306	     -0.35271172	     -2.72954965	     30.78808028	      8.62469316	     65.79748660	    123.17717267	    104.11345882	     40.72813268	     10.27321868	     63.32149309	    123.92272431	     88.80642933
      8.06666670	     -7.59070057	      0.84269470	     -7.87859367	      0.71949741	      0.88726505	     -0.24781957	      1.07620503	     -4.10621443	      8.09858422	      1.28535486	      0.02243367	      7.21399369	    -16.50686405	     -7.49999987	     -0.87812010	     -5.97727184	     -2.18600263	      2.77979725	      0.04851661	      8.09032736	    -10.32137582	     -7.49999987	      2.55466476	     -0.38386828	     -2.77029750	     30.38555112	      8.58040506	     65.77144481	    123.18999914	    104.09927281	     40.48008323	     10.32372253	     63.39013444	    123.99280452	     88.82960819
      8.08333330	     -7.41485941	      0.66143100	     -7.83153045	      0.71956601	      0.88760224	     -0.24784343	      0.82548773	     -3.86426634	      7.85248578	      1.47306880	      0.02570990	      6.91507879	    -16.45745359	     -7.49999987	     -1.29988911	     -6.19250200	     -2.46401264	      2.71982104	      0.04746983	      8.01803561	    -10.05216180	     -7.49999987	      2.46985748	     -0.24884176	     -2.60741034	     29.83423003	      8.56101159	     65.02362684	    123.86580623	    103.90903247	     40.45341290	     10.80580172	     63.53661498	    124.04945137	     89.69872241
      8.10000000	     -7.35747114	      0.50119376	     -7.75819450	      0.71934870	      0.89069654	     -0.24797347	      0.82505016	     -3.64739461	      7.63161261	      1.78608567	      0.03117308	      6.50773065	    -16.51415022	     -7.49999987	     -1.50014584	     -6.39471817	     -2.75918876	      2.71280757	      0.04734742	      7.80995936	     -9.76550127	     -7.49999987	      2.39712399	     -0.07455518	     -2.36324453	     29.65171314	      8.48442998	     64.60867911	    124.32930093	    103.66414914	     40.58097084	     11.20816632	     63.58565615	    123.90454998	     89.86601482
      8.11666670	     -7.47342930	      0.35477508	     -7.60578393	      0.71881127	      0.89158010	     -0.24844733	      1.10454272	     -3.42907492	      7.55332096	      2.20040218	      0.03840426	      5.95180332	    -16.69519823	     -7.49999987	     -1.42521613	     -6.56150219	     -2.87312301	      2.72127022	      0.04749513	      7.44011461	     -9.80815772	     -7.49999987	      2.44248861	      0.09939909	     -2.29756165	     29.45800259	      8.32735152	     64.12485838	    125.10292712	    103.55671316	     40.84162469	     11.43174667	     63.46932321	    123.80966331	     90.28176625
      8.13333330	     -7.48506274	      0.14907324	     -7.41896906	      0.72287959	      0.89007139	     -0.24588003	      1.25797416	     -3.12090001	      7.37918067	      2.60954164	      0.04554509	      5.51909112	    -16.70817073	     -7.49999987	     -1.53478558	     -6.82683405	     -2.97421206	      2.69683050	      0.04706857	      7.09560340	     -9.66358485	     -7.49999987	      2.52926447	      0.28555811	     -2.45306617	     29.35002700	      8.53395936	     63.97675637	    125.49523177	    103.54535156	     41.11639447	     11.59513671	     63.22108466	    123.85058734	     90.27839922
